<?xml version="1.0" encoding="UTF-8"?>
<svg id="Layer_1" data-name="Layer 1" xmlns="http://www.w3.org/2000/svg" viewBox="0 0 219.93 288">
  <defs>
    <style>
      .cls-1 {
        fill: #010b0c;
      }

      .cls-2 {
        letter-spacing: -.02em;
      }

      .cls-3 {
        fill: #052a9e;
      }

      .cls-4 {
        letter-spacing: -.02em;
      }

      .cls-5 {
        letter-spacing: -.02em;
      }

      .cls-6 {
        fill: #f4f4f4;
      }

      .cls-7 {
        fill: #bf865c;
      }

      .cls-8 {
        letter-spacing: 0em;
      }

      .cls-9 {
        fill: #0d9fb5;
      }

      .cls-10 {
        fill: #f9f9f9;
        font-family: RedHatDisplay-Bold, 'Red Hat Display';
        font-size: 22.37px;
        font-variation-settings: 'wght' 700;
        font-weight: 700;
      }
    </style>
  </defs>
  <path class="cls-3" d="M0,256.21h204.65c8.43,0,15.28,6.85,15.28,15.28v16.51H15.86c-8.76,0-15.86-7.11-15.86-15.86v-15.93h0Z"/>
  <text class="cls-10" transform="translate(74.04 279.89)"><tspan class="cls-5" x="0" y="0">A</tspan><tspan x="15.66" y="0">u</tspan><tspan class="cls-4" x="28.61" y="0">r</tspan><tspan x="36.74" y="0">o</tspan><tspan class="cls-2" x="50.36" y="0">r</tspan><tspan class="cls-8" x="58.64" y="0">a</tspan></text>
  <g>
    <g>
      <path class="cls-7" d="M54.8,222.16l-18.98,33.08-18.32-39.01-4.09-8.72c3.62-10.49,23.68-9.76,23.68-9.76l5.19,7.15,12.53,17.26Z"/>
      <path class="cls-6" d="M54.8,222.16l-18.98,33.08-18.32-39.01c2.8-3.13,10.14-9.5,24.78-11.33l12.53,17.26Z"/>
      <path class="cls-3" d="M58.34,220.89l-5.8-1.85c-.62-.2-1.3-.07-1.8.35l-8.62,7.13c-.63.52-.86,1.39-.57,2.16l.65,1.7c.42,1.08.29,2.29-.34,3.26l-5.49,8.45c-.33.5-.95.72-1.52.52l-2.12-.74c-.33-.11-.69-.04-.94.2l-2.75,2.61c-.28.27-.37.67-.22,1.03,1.04,2.46,5.3,11.72,10.79,11.88,6.33.18,18.73-36.7,18.73-36.7Z"/>
      <path class="cls-6" d="M69.62,215.47s-3.25-1.99-7.23-.9c-6.54,1.78-12.47,17.18-15.19,20.43-6.39,7.67-7.77,9.58-8.32,10.67-.69,1.37-7.23,12.66,2.89,15.01,6.58,1.53,27.84-45.2,27.84-45.2Z"/>
      <path class="cls-9" d="M45.7,240.06c.39-.37.8-.73,1.22-1.07,1.03-.84,3.62-3.16,4.63-6.17.46-1.37,6.33-18.8,17.18-18.26,4.66.23,6.06,4.06,6.24,8.06.22,4.88-1.37,9.66-4.35,13.53-2.42,3.14-5.75,7.25-8.21,9.5-4.34,3.98-4.52,6.15-8.68,11.93-2.88,4.01-11.93,7.05-14.46,1.63-2.44-5.22-.18-12.79,6.45-19.16Z"/>
      <path class="cls-3" d="M55.16,235.72s6.03-20.06,15.58-17.07c6.62,2.07,1.58,16.39-5.61,22.59l-9.96-5.52Z"/>
      <path class="cls-3" d="M48.33,242.77l9.54,5.4s-6.16,17.21-13.52,11.81c-7.35-5.4,3.98-17.21,3.98-17.21Z"/>
      <path class="cls-1" d="M62.69,222.02c2.91,1.06,5.71,2.39,8.37,3.97.76.45,1.5.92,2.23,1.41.22.15.54.04.66-.17.14-.24.04-.52-.17-.66-2.61-1.75-5.39-3.26-8.29-4.48-.84-.36-1.69-.69-2.54-1-.25-.09-.53.1-.6.34-.07.27.09.51.34.6h0Z"/>
      <path class="cls-1" d="M58.88,227.06c3.26,1.75,6.52,3.51,9.78,5.26.92.5,1.84.99,2.77,1.49.55.3,1.04-.54.49-.84-3.26-1.75-6.52-3.51-9.78-5.26-.92-.5-1.84-.99-2.77-1.49-.55-.3-1.04.54-.49.84h0Z"/>
      <path class="cls-1" d="M56,232.88c2.95,1.64,5.91,3.28,8.86,4.92.84.47,1.69.94,2.53,1.41.55.3,1.03-.53.49-.84-2.95-1.64-5.91-3.28-8.86-4.92-.84-.47-1.69-.94-2.53-1.41-.55-.3-1.03.53-.49.84h0Z"/>
      <path class="cls-1" d="M46.06,245.72c2.68,1.5,5.35,3,8.03,4.51.76.43,1.52.85,2.28,1.28.54.31,1.03-.53.49-.84-2.68-1.5-5.35-3-8.03-4.51-.76-.43-1.52-.85-2.28-1.28-.54-.31-1.03.53-.49.84h0Z"/>
      <path class="cls-1" d="M41.72,254.58c2.35,1.31,4.69,2.63,7.04,3.94.67.37,1.33.75,2,1.12.54.3,1.03-.53.49-.84-2.35-1.31-4.69-2.63-7.04-3.94-.67-.37-1.33-.75-2-1.12-.54-.3-1.03.53-.49.84h0Z"/>
      <path class="cls-1" d="M43.35,250.06c2.77,1.55,5.54,3.1,8.32,4.65.78.44,1.57.88,2.35,1.31.54.3,1.03-.53.49-.84-2.77-1.55-5.54-3.1-8.32-4.65-.78-.44-1.57-.88-2.35-1.31-.54-.3-1.03.53-.49.84h0Z"/>
      <path class="cls-1" d="M66.09,218.57c-1.33,2.26-2.59,4.56-3.77,6.9-1.19,2.35-2.3,4.74-3.33,7.16-.59,1.38-1.15,2.76-1.69,4.16-.09.24.1.53.34.6.27.08.5-.09.6-.34.93-2.42,1.94-4.81,3.03-7.16,1.09-2.37,2.26-4.7,3.5-6.99.7-1.29,1.42-2.57,2.17-3.84.32-.54-.52-1.03-.84-.49h0Z"/>
      <path class="cls-1" d="M73.32,222.9c-1.33,2.26-2.59,4.56-3.77,6.9-1.19,2.35-2.3,4.74-3.33,7.16-.59,1.38-1.15,2.76-1.69,4.16-.09.24.1.53.34.6.27.08.5-.09.6-.34.93-2.42,1.94-4.81,3.03-7.16,1.09-2.37,2.26-4.7,3.5-6.99.7-1.29,1.42-2.57,2.17-3.84.32-.54-.52-1.03-.84-.49h0Z"/>
      <path class="cls-1" d="M70.97,219.11c-1.53,2.47-2.98,4.99-4.35,7.56-1.36,2.56-2.64,5.16-3.83,7.81-.68,1.51-1.33,3.03-1.95,4.56-.1.24.11.53.34.6.28.08.5-.09.6-.34,1.08-2.65,2.25-5.27,3.5-7.85,1.26-2.59,2.6-5.13,4.03-7.63.81-1.42,1.64-2.82,2.5-4.2.33-.53-.51-1.02-.84-.49h0Z"/>
      <path class="cls-1" d="M49.31,243.6c-2.38,3.33-4.34,6.94-5.86,10.74-.43,1.07-.82,2.16-1.17,3.26-.08.25.09.53.34.6.26.07.52-.09.6-.34,1.24-3.84,2.94-7.52,5.06-10.95.6-.96,1.22-1.91,1.88-2.83.15-.21.04-.54-.17-.66-.24-.14-.51-.04-.66.17h0Z"/>
      <path class="cls-1" d="M52.93,245.41c-2.67,3.47-4.92,7.27-6.65,11.29-.49,1.14-.94,2.3-1.35,3.47-.09.25.1.53.34.6.27.07.51-.09.6-.34,1.41-4.07,3.36-7.95,5.74-11.54.68-1.02,1.4-2.02,2.15-3,.16-.21.03-.54-.17-.66-.25-.15-.5-.03-.66.17h0Z"/>
      <path class="cls-1" d="M56.26,247.31c-2.55,2.99-4.74,6.3-6.43,9.86-.47.99-.9,1.99-1.29,3.01-.09.24.1.53.34.6.27.08.5-.09.6-.34,1.36-3.54,3.23-6.87,5.47-9.92.64-.86,1.31-1.7,2-2.52.17-.2.2-.49,0-.68-.17-.17-.51-.2-.68,0h0Z"/>
      <rect class="cls-3" x="53.53" y="240.96" width="7.77" height="3.62" rx="1.81" ry="1.81" transform="translate(129.08 3.81) rotate(30)"/>
      <path class="cls-1" d="M31.93,242.43c1.99.37,3.75,1.61,4.8,3.33.31.5.53,1,.7,1.55.18.59,1.12.34.93-.26-.67-2.16-2.29-4.01-4.35-4.96-.59-.27-1.2-.48-1.83-.6-.26-.05-.52.07-.6.34-.06.24.08.55.34.6h0Z"/>
      <path class="cls-1" d="M54.75,219.77c-3.19,3.06-6.39,6.11-9.58,9.17l-2.73,2.61c-.45.43.23,1.12.68.68l9.58-9.17c.91-.87,1.82-1.74,2.73-2.61.45-.43-.23-1.12-.68-.68h0Z"/>
      <path class="cls-1" d="M48.73,225.79c-.29-2.47-.58-4.96-.42-7.45.08-1.17.26-2.34.59-3.47.16-.54.35-1.08.58-1.59.09-.21.19-.42.31-.61,0,0,.09-.12.03-.04.02-.02.04-.04.06-.07.07-.07.14-.14.21-.2-.09.07.02-.01.03-.02.03-.02.07-.04.1-.06.03-.02.2-.09.1-.05.07-.03.15-.05.22-.07.04,0,.08-.01.11-.03.12-.03-.09,0,.03,0,.08,0,.16-.01.23,0,.04,0,.26.03.14,0,.06.01.13.02.19.04.04,0,.08.02.11.03.02,0,.18.07.07.02.13.06.26.13.37.21-.09-.07.01.01.02.02.03.03.06.05.09.08.03.03.05.06.08.09.02.02.08.11.02.03.05.07.09.13.13.21.02.04.04.07.05.11-.04-.1,0,.03.01.04.02.07.04.14.06.21,0,.01.03.16.01.05,0,.07.01.14.02.21.11,2.21-.42,4.38-1.49,6.32-1.12,2.03-2.6,3.93-2.85,6.31-.03.26.24.48.48.48.28,0,.46-.22.48-.48.22-2.11,1.63-3.89,2.63-5.68,1.17-2.08,1.79-4.41,1.71-6.8-.02-.46-.08-.89-.31-1.3-.19-.34-.47-.62-.8-.83-.61-.38-1.42-.47-2.1-.21-.36.14-.69.35-.93.65-.35.43-.56.97-.76,1.48-.46,1.15-.75,2.35-.91,3.58-.39,2.93-.06,5.88.28,8.8.03.26.2.48.48.48.24,0,.51-.22.48-.48h0Z"/>
      <path class="cls-1" d="M48.42,225.33c-1.96-1.25-4.01-2.41-6.25-3.07-2.09-.62-4.37-.76-6.47-.15-.52.15-1.03.35-1.52.6-.47.24-.95.52-1.33.89-.41.4-.67.94-.56,1.52.09.5.47.89.89,1.15.44.28.96.44,1.45.58.55.16,1.11.27,1.68.34,1.19.16,2.39.18,3.58.14,1.38-.05,2.76-.15,4.15-.23,1.42-.08,2.83-.17,4.25-.25.26-.02.48-.21.48-.48,0-.25-.22-.5-.48-.48-2.38.14-4.76.29-7.14.43-2.17.12-4.4.19-6.5-.47-.4-.13-.83-.26-1.13-.51-.03-.03-.07-.06-.1-.09,0,0-.11-.12-.06-.06-.03-.04-.06-.09-.08-.13,0,0-.03-.08-.01-.03-.05-.15-.04-.28.05-.44.21-.37.65-.62,1.01-.83.4-.23.82-.42,1.26-.57,1.86-.64,3.89-.6,5.78-.13,2.37.6,4.52,1.82,6.57,3.13.22.14.53.05.66-.17.14-.23.05-.52-.17-.66h0Z"/>
      <path class="cls-1" d="M53.13,240.93c2.48,1.75,5.2,3.14,8.06,4.15.25.09.53-.1.6-.34.07-.27-.09-.51-.34-.6-2.78-.98-5.42-2.35-7.83-4.05-.21-.15-.54-.04-.66.17-.14.24-.04.51.17.66h0Z"/>
      <path class="cls-1" d="M60.67,217.02c-2.65,2.08-4.44,5.03-5.87,8.03-1.51,3.17-2.68,6.5-4.44,9.54-.85,1.47-1.85,2.81-3.02,4.05-1.12,1.19-2.33,2.28-3.51,3.41-1.18,1.13-2.33,2.3-3.31,3.61-.99,1.33-1.76,2.81-2.23,4.4-.95,3.2-.73,6.71.6,9.77.16.36.33.72.53,1.07.3.55,1.14.06.84-.49-1.53-2.78-1.95-6.12-1.26-9.21.35-1.57.99-3.04,1.88-4.37.88-1.31,1.96-2.46,3.09-3.56,1.15-1.12,2.35-2.2,3.48-3.34,1.18-1.19,2.25-2.47,3.16-3.88,1.89-2.94,3.09-6.23,4.52-9.4,1.34-2.96,2.91-5.92,5.32-8.15.29-.27.6-.53.92-.78.21-.16.17-.52,0-.68-.2-.2-.48-.16-.68,0h0Z"/>
      <path class="cls-1" d="M28.53,245.31c.24,3.65,1.99,7.14,4.73,9.55.77.68,1.61,1.27,2.52,1.76.55.3,1.04-.54.49-.84-2.99-1.61-5.26-4.44-6.25-7.68-.28-.93-.46-1.85-.52-2.8-.02-.26-.21-.48-.48-.48-.25,0-.5.22-.48.48h0Z"/>
      <path class="cls-1" d="M42.43,232.35c1.24,1.08,2.21,2.45,2.79,3.99.09.24.33.41.6.34.23-.06.43-.35.34-.6-.64-1.7-1.68-3.22-3.04-4.42-.2-.17-.49-.19-.68,0-.18.18-.2.51,0,.68h0Z"/>
      <path class="cls-1" d="M19.88,221.36c2.93-2.24,6.06-4.23,9.34-5.93,3.26-1.69,6.67-3.1,10.17-4.2,1.98-.62,3.99-1.14,6.02-1.57.26-.05.4-.35.34-.6-.07-.27-.34-.39-.6-.34-3.63.76-7.18,1.83-10.62,3.21-3.47,1.39-6.82,3.07-9.99,5.04-1.77,1.1-3.49,2.28-5.15,3.55-.21.16-.32.42-.17.66.12.2.45.33.66.17h0Z"/>
      <path class="cls-1" d="M20.59,213.78c1.51.61,2.64,2.04,2.96,3.65.05.26.36.4.6.34.27-.07.39-.34.34-.6-.39-1.95-1.81-3.58-3.63-4.32-.24-.1-.53.11-.6.34-.08.28.1.5.34.6h0Z"/>
      <path class="cls-1" d="M26.04,210.3c1.52.83,2.65,2.27,3.09,3.95.16.6,1.09.35.93-.26-.5-1.91-1.8-3.58-3.53-4.53-.55-.3-1.04.54-.49.84h0Z"/>
      <path class="cls-1" d="M31.66,208.05c.66.31.99.97,1.29,1.63.4.91.79,1.83,1.18,2.74.1.24.46.29.66.17.25-.15.28-.42.17-.66-.41-.95-.8-1.91-1.23-2.85-.34-.75-.81-1.51-1.58-1.87-.24-.11-.52-.07-.66.17-.12.21-.06.55.17.66h0Z"/>
      <path class="cls-1" d="M37.41,206.33c1.16,1.08,1.94,2.49,2.27,4.04.05.26.35.4.6.34.27-.07.39-.34.34-.6-.36-1.7-1.25-3.28-2.52-4.47-.45-.43-1.14.26-.68.68h0Z"/>
    </g>
    <g>
      <path class="cls-6" d="M125.5,217.42c1,2.18,1.29,4.56.95,6.99-.38,2.72-1.55,5.5-3.39,8.11-2.04,2.91-4.9,5.62-8.4,7.82-1.22.77-2.53,1.48-3.9,2.11-1.25.57-2.5,1.06-3.75,1.47-3.9,1.27-7.77,1.74-11.3,1.46h0c-3.18-.24-6.08-1.09-8.44-2.49-2.26-1.34-4.03-3.2-5.1-5.52-.94-2.04-1.25-4.26-1.01-6.53.3-2.78,1.43-5.63,3.27-8.32,2.1-3.07,5.1-5.93,8.82-8.22,1.15-.71,2.37-1.37,3.66-1.96,1.26-.58,2.54-1.08,3.81-1.49,4.21-1.36,8.39-1.79,12.13-1.36,3.01.34,5.74,1.24,7.95,2.65,2.07,1.32,3.7,3.09,4.71,5.28Z"/>
      <polygon class="cls-1" points="110.53 232.15 103.45 235.5 96.98 231.09 97.58 223.34 104.66 219.99 111.14 224.4 110.53 232.15"/>
      <path class="cls-1" d="M112.84,209.49l-.11,1.38-7.08,3.35-4.94-3.36c4.21-1.36,8.39-1.79,12.13-1.36Z"/>
      <path class="cls-1" d="M107.01,243.91c-3.9,1.27-7.77,1.74-11.3,1.46l.07-.94,7.08-3.35,4.15,2.83Z"/>
      <path class="cls-1" d="M93.24,214.3l-.45,5.75-7.08,3.35-1.29-.88c2.1-3.07,5.1-5.93,8.82-8.22Z"/>
      <path class="cls-1" d="M125.5,217.42c1,2.18,1.29,4.56.95,6.99l-1.77.84-6.47-4.41.61-7.76,1.98-.94c2.07,1.32,3.7,3.09,4.71,5.28Z"/>
      <path class="cls-1" d="M89.86,234.19l-.61,7.76-1.98.94c-2.26-1.34-4.03-3.2-5.1-5.52-.94-2.04-1.25-4.26-1.01-6.53l2.23-1.05,6.47,4.41Z"/>
      <path class="cls-1" d="M123.06,232.52c-2.04,2.91-4.9,5.62-8.4,7.82l.4-5.1,7.08-3.35.92.63Z"/>
      <path class="cls-1" d="M105.06,213.25c-.13,2.51-.34,5.01-.65,7.5-.03.26.25.48.48.48.29,0,.45-.22.48-.48.32-2.49.52-4.99.65-7.5.01-.26-.23-.48-.48-.48-.27,0-.47.22-.48.48h0Z"/>
      <path class="cls-1" d="M119.38,220.1c-2.49,1.25-4.99,2.46-7.54,3.58-.81.35-1.62.7-2.43,1.04-.24.1-.41.32-.34.6.06.23.35.44.6.34,2.73-1.14,5.42-2.35,8.08-3.65.71-.35,1.42-.7,2.12-1.06.23-.12.3-.45.17-.66-.14-.24-.43-.29-.66-.17h0Z"/>
      <path class="cls-1" d="M98.17,230.02c-2.49,1.25-4.99,2.46-7.54,3.58-.81.35-1.62.7-2.43,1.04-.24.1-.41.32-.34.6.06.23.35.44.6.34,2.73-1.14,5.42-2.35,8.08-3.65.71-.35,1.42-.7,2.12-1.06.23-.12.3-.45.17-.66-.14-.24-.43-.29-.66-.17h0Z"/>
      <path class="cls-1" d="M91.66,219.89c2.02,1.42,4,2.89,5.92,4.45.2.16.49.2.68,0,.17-.17.2-.52,0-.68-1.98-1.61-4.03-3.14-6.12-4.6-.21-.15-.54-.04-.66.17-.14.24-.04.51.17.66h0Z"/>
      <path class="cls-1" d="M109.46,231.8c2.02,1.42,4,2.89,5.92,4.45.2.16.49.2.68,0,.17-.17.2-.52,0-.68-1.98-1.61-4.03-3.14-6.12-4.6-.21-.15-.54-.04-.66.17-.14.24-.04.51.17.66h0Z"/>
      <path class="cls-1" d="M103.04,234.93c-.13,2.51-.34,5.01-.65,7.5-.03.26.25.48.48.48.29,0,.45-.22.48-.48.32-2.49.52-4.99.65-7.5.01-.26-.23-.48-.48-.48-.27,0-.47.22-.48.48h0Z"/>
    </g>
  </g>
</svg>