<?xml version="1.0" encoding="UTF-8"?>
<svg id="Layer_1" data-name="Layer 1" xmlns="http://www.w3.org/2000/svg" viewBox="0 0 219.93 288">
  <defs>
    <style>
      .cls-1 {
        fill: #faa919;
      }

      .cls-2 {
        fill: #080a12;
      }

      .cls-3 {
        fill: #010b0c;
      }

      .cls-4 {
        fill: #f4f4f4;
      }

      .cls-5 {
        fill: #f54404;
      }
    </style>
  </defs>
  <path class="cls-1" d="M0,256.21h204.65c8.43,0,15.28,6.85,15.28,15.28v16.51H15.86c-8.76,0-15.86-7.11-15.86-15.86v-15.93h0Z"/>
  <g>
    <g id="Camada_1-2" data-name="Camada 1-2">
      <g>
        <path class="cls-3" d="M161.22,204.06c2.27,2.74,5.29,4.63,6.92,4.33.37-.07.91-.27,1.25-1.25.1-.3.07-.59-.09-.92-.84-1.69-4.5-3.2-5.84-3.65l-6.05-2,6.36.32c6.78.35,8.53,2.47,10.73,5.15,1.53,1.8,3.51,1.21,3.85,1.09.28-.18.59-.43.57-.69-.08-1.06-3.17-3-6.01-4.15-4.16-1.62-7.22-3.72-9.47-5.85-.24.07-.49.16-.72.25-.51.2-1.01.44-1.54.67-.81.34-1.64.64-2.38,1.12-.07.05-.15.09-.22.14-.09.06-.18.12-.27.19-.92.52-1.62,1.25-2.3,2.02,2.78.65,5.1,3.1,5.21,3.22h0Z"/>
        <path class="cls-3" d="M167.56,225.61c-1.02.73-2.87.69-4.81-.2.85,1.12,2.03,2.33,3.58,3.33.25.04.49.08.75.09.21,0,.43.01.65.01,1.34,0,2.65-.16,3.9-.46.05-.01.11-.03.17-.04,1.17-.27,2.14-.85,3.39-1.27.1-.05.19-.1.29-.15,1.35-.72,2.58-1.62,3.68-2.67.08-.07.16-.15.23-.23.45-.59.7-1.17,1.06-1.66.52-.7,1.27-1.22,1.69-1.98,1.32-2.37,2.08-5.11,2.08-8.02,0-1.4-.17-2.76-.5-4.06-.03-.11-.06-.21-.09-.32-.39-1.04-.77-2.01-1.19-3.08-.05-.1-.1-.2-.15-.29-.05-.1-.1-.19-.16-.29-.05-.1-.1-.19-.16-.28-.17-.62-.61-.92-.98-1.3-.46-.47-.71-1.11-1.16-1.59-.85-.91-1.79-1.72-2.82-2.42-.35-.24-.73-.43-1.12-.6-1.16-.38-2.29-.75-3.36-1.09-1.25-.4-2.37-.76-3.38-1.1-.47-.04-.94-.06-1.41-.06-.74,0-1.46.06-2.17.15,2,1.72,4.61,3.38,7.98,4.69,1.16.47,6.88,2.91,7.09,5.61.05.64-.16,1.56-1.46,2.34l-.11.06c-1.17.48-3.9.78-5.88-1.56-1.16-1.41-2.09-2.55-3.71-3.34.58.5,1.07,1.05,1.37,1.64.37.74.43,1.51.18,2.25-.59,1.69-1.72,2.23-2.57,2.38-2.68.48-6.29-2.19-8.51-4.89,0,0-.09-.09-.24-.24.48.85.87,1.84,1.08,3.01.32,1.74,1.87,3.1,3.24,4.31,1.33,1.17,2.47,2.17,2.52,3.47.02.67-.26,1.31-.85,1.9-.52.52-1.04.75-1.56.82,1.45.98,2.92,2.28,3.83,3.9,1.08,1.97-.02,2.98-.39,3.24h0Z"/>
        <path class="cls-3" d="M159.23,222.66l-1.33-3.85,2.77,2.98c2.3,2.47,5.12,2.97,5.88,2.42.27-.2.05-.72-.11-1.01-1.99-3.53-7.44-5.41-7.49-5.43l-3.94-1.34,4.15-.34c1.43-.11,2.52.19,3.39.44,1.17.33,1.46.36,1.92-.1.24-.24.36-.45.35-.62-.02-.56-.99-1.41-1.93-2.24-1.51-1.32-3.38-2.96-3.8-5.29-.67-3.72-3.56-5.35-4.52-5.8-.06.06-.12.13-.18.19-.06.08-.12.17-.19.27-1,1.66-1.78,3.41-2.43,5.3-.03.1-.05.2-.08.3-.29,1.23-.44,2.5-.44,3.81,0,1.99.35,3.89.99,5.65.04.1.08.2.12.31.65,2.19,1.81,3.74,3.27,5.23.07.08.15.16.22.24.07.07.14.15.22.22.07.07.15.15.22.22,1.18,1.32,2.73,2.29,4.31,3,.09.04.19.09.28.13.48.22.96.41,1.46.59.1.03.2.07.3.1.04,0,.08.01.11.02-2.5-2.53-3.46-5.22-3.52-5.4h0Z"/>
      </g>
    </g>
    <path class="cls-5" d="M155.64,221.89l-2.38-.11c-.36-.02-.65.3-.61.66l4.33,39.52-6.33-.4c-.31-.02-.58.21-.62.53l-.7,6.66c-.03.32.19.61.5.64l27.43,3.35c.3.04.58-.17.64-.47l1.42-7.27c.07-.35-.18-.67-.53-.7l-6.94-.48,9.8-39.99c.09-.36-.17-.71-.53-.73l-2.13-.1-23.36-1.11Z"/>
    <path class="cls-2" d="M160.25,262.74l11.56,1.49c.22.03.43-.13.46-.36.03-.23-.13-.44-.35-.46l-11.56-1.49c-.22-.03-.43.13-.46.36-.03.22.12.42.33.46,0,0,.02,0,.03,0Z"/>
    <path class="cls-2" d="M175.19,272.02s.02,0,.03,0c.22.03.43-.14.46-.36l.81-6.59c.03-.23-.13-.43-.35-.46-.22-.03-.43.14-.46.36l-.81,6.59c-.03.22.12.42.33.46Z"/>
    <path class="cls-4" d="M151.72,263.13c.46-.24,1.03.06,1.05.06.25.13.56.04.69-.21.13-.25.04-.57-.21-.7-.04-.02-1.03-.55-1.98-.08-.68.34-1.12,1.08-1.3,2.19-.05.28.13.54.4.59,0,0,0,0,.01,0,.28.05.54-.15.59-.43.09-.52.29-1.2.74-1.43Z"/>
    <path class="cls-4" d="M150.26,268.85s.05,0,.08,0c.28.01.52-.21.53-.5l.11-2.42c.01-.29-.2-.53-.49-.54-.28-.01-.52.21-.53.5l-.11,2.42c-.01.26.17.48.41.53Z"/>
    <path class="cls-4" d="M160.76,244.44l-.04,2.11c0,.45.31.85.74.93.03,0,.06,0,.09.01l7.42.7c.49.05.93-.29,1.03-.78l.46-2.37c.05-.23,0-.47-.15-.66-.14-.19-.35-.31-.58-.34l-2.06-.22c.14-1.15.47-4.03.74-6.89.2-2.16.33-3.9.38-5.15.08-2.21-.04-2.82-.61-2.93-.33-.06-1.02-.2-6.58,5.32-.18.18-.28.43-.28.68,0,.25.11.5.29.67l1.55,1.45c.4.37,1.03.35,1.41-.05l.27-.29-1.05,6.94h-2.17c-.48-.01-.88.38-.89.87ZM164.25,244.61c.25,0,.47-.19.51-.44l1.35-8.99c.03-.22-.08-.44-.28-.54-.2-.1-.44-.06-.59.11l-1.37,1.46-1.47-1.37c2.79-2.77,4.62-4.33,5.38-4.81.15,1.7-.45,8.24-1.18,14.2-.02.14.02.28.11.38.08.11.21.18.34.19l2.37.25-.41,2.1-7.26-.69.03-1.88h2.47Z"/>
    <ellipse class="cls-4" cx="156.68" cy="227.71" rx="2.4" ry="1.38" transform="translate(-96.79 337.97) rotate(-78.98)"/>
    <path class="cls-5" d="M150.3,231.82c1.45,1.31,4.6,5.07,4.6,5.07l-.57-4.28s-4.55-8.05-9.26-5.74c-4.71,2.31-.83,18.15,11.02,26.89l-.24-5.58s-7.39-6.16-9.44-13.1c-2.06-6.93,2.44-4.56,3.89-3.26Z"/>
    <path class="cls-5" d="M174.52,250.18l-1.01,5.5c12.96-7.11,19-22.3,14.65-25.21-4.35-2.9-9.97,4.48-9.97,4.48l-1.16,4.17s2.95-3.36,4.97-4.51c1.7-.97,6.69-2.78,3.69,3.82-3,6.6-11.17,11.74-11.17,11.74Z"/>
    <path class="cls-2" d="M155.56,222.3s.04,0,.06,0l23.36,1.11c.23.01.42-.17.43-.39.01-.23-.16-.42-.39-.43l-23.36-1.11c-.23-.01-.42.17-.43.39-.01.21.13.39.33.43Z"/>
    <path class="cls-2" d="M153.92,235.67s.08,0,.12,0c.22-.02.39-.23.37-.45l-.35-3.72c-.02-.23-.22-.39-.45-.37-.22.02-.39.23-.37.45l.35,3.72c.02.19.15.33.33.37Z"/>
    <path class="cls-2" d="M156.01,254.17s.08,0,.12,0c.22-.03.39-.23.36-.46l-.65-5.94c-.02-.23-.23-.39-.45-.36-.22.03-.39.23-.36.46l.65,5.94c.02.18.16.33.33.36Z"/>
    <path class="cls-2" d="M178.35,237.49c.21.04.42-.09.48-.31l.81-3.34c.05-.22-.08-.45-.3-.5-.22-.05-.44.08-.49.31l-.81,3.34c-.05.22.08.45.3.5,0,0,.01,0,.02,0Z"/>
    <path class="cls-2" d="M173.43,256.09c.2.04.41-.08.47-.29l1.83-6.05c.07-.22-.05-.45-.27-.52-.22-.07-.44.06-.51.28l-1.83,6.05c-.07.22.05.45.27.52.01,0,.03,0,.04.01Z"/>
    <path class="cls-4" d="M147.21,228.32c.26.1.56-.03.66-.29.11-.27-.02-.57-.28-.67-.06-.02-1.44-.57-2.55.23-.86.62-1.25,1.82-1.18,3.58,0,.24.18.44.41.48.04,0,.08.01.12,0,.28-.01.5-.26.49-.54-.05-1.36.2-2.29.75-2.69.64-.47,1.56-.12,1.58-.11Z"/>
    <path class="cls-4" d="M158.19,260.45s.09.01.14,0c.28-.02.49-.27.47-.56l-.56-8.07c-.02-.29-.26-.5-.55-.48-.28.02-.49.27-.47.56l.56,8.07c.02.24.19.43.41.47Z"/>
  </g>
</svg>