<?xml version="1.0" encoding="UTF-8"?>
<svg id="Layer_1" data-name="Layer 1" xmlns="http://www.w3.org/2000/svg" viewBox="0 0 219.93 288">
  <defs>
    <style>
      .cls-1 {
        fill: #09ae4b;
      }

      .cls-2 {
        fill: #010b0c;
      }

      .cls-3 {
        fill: #0bda5e;
      }

      .cls-4 {
        fill: #3038d5;
      }

      .cls-5 {
        fill: #0d9fb5;
      }

      .cls-6 {
        fill: #f9f9f9;
        font-family: RedHatDisplay-Bold, 'Red Hat Display';
        font-size: 22.37px;
        font-variation-settings: 'wght' 700;
        font-weight: 700;
      }
    </style>
  </defs>
  <g>
    <path class="cls-1" d="M0,256.21h204.65c8.43,0,15.28,6.85,15.28,15.28v16.51H15.86c-8.76,0-15.86-7.11-15.86-15.86v-15.93h0Z"/>
    <text class="cls-6" transform="translate(85.86 279.89)"><tspan x="0" y="0">Gaia</tspan></text>
  </g>
  <g>
    <path class="cls-4" d="M23.2,256.29c2.98-2.15,3.44-4.71,5.35-6.11s4.43-.15,8.64-2.45c4.21-2.3,4.06-5.9,4.06-5.9l-.68-1.15s-2.33,2.16-4.57,3.89c-2.24,1.73-4.74,1.56-9.7,3.31-4.96,1.75-10.29,11.36-11.33,14.86-1.04,3.51-.95,8.68,3.13,10.3,4.09,1.62,7.38.48,9.73-2.11,2.35-2.58,2.05-9.06,6.49-11.44,4.44-2.38,11.68-2.13,12.39-7.72.71-5.59-3.05-9.16-3.05-9.16l-1.63-.48s.88,7.1-1.32,9.91c-2.19,2.81-5.92,2.73-9.17,3.63-3.25.9-6.53,4.58-7.69,7.31-1.16,2.73-.55,9.31-4.14,6.39-3.59-2.92.49-10.93,3.47-13.08Z"/>
    <path class="cls-5" d="M58.67,216.66s-16.82,6.63-20.96,9.13c-4.14,2.51-2.91,6.14-2.91,6.14l5.9,10.68c1.5.81,8.97,1.78,11.02-3.75,2.05-5.53-1.78-8.65-1.78-8.65l12.68-5.97-3.95-7.59Z"/>
    <path class="cls-2" d="M61.37,222.83c.24-.11.34-.39.23-.63-.11-.24-.39-.35-.62-.24l-20.58,9.48c-.1.04-.17.12-.22.21-.11.21-2.54,5.06.24,8.09,1.16,1.26,2.79,1.89,4.51,1.76.11,0,.22-.02.33-.03,1.95-.25,3.69-1.43,4.56-3.07.66-1.25,1.13-3.86.08-5.73-.47-.83-1.43-1.83-3.36-1.92-.26-.01-.48.19-.49.46-.01.26.19.49.45.5,1.21.05,2.08.54,2.58,1.44.78,1.39.56,3.58-.09,4.8-.73,1.37-2.2,2.36-3.85,2.57-1.57.21-3-.3-4.04-1.43-2.09-2.28-.52-6.07-.17-6.86l20.43-9.41Z"/>
    <path class="cls-2" d="M42.8,234.21c.19-.18.2-.48.03-.67-.17-.2-.47-.21-.66-.03-.04.04-1.02.96-1.04,2.4-.01,1.09.51,2.16,1.57,3.17.1.1.23.14.36.13.11,0,.22-.06.31-.15.18-.19.17-.49-.02-.68-.85-.82-1.28-1.65-1.27-2.46,0-1.03.72-1.71.73-1.72Z"/>
    <polygon class="cls-2" points="49.36 225.75 53.21 224.04 50.86 219.69 47.2 221.22 49.36 225.75"/>
    <g>
      <path class="cls-3" d="M36.8,221.24c.25-.3.21-.75-.08-1.01-.02-.02-2.42-2.08-4.84-4.09-5.19-4.3-5.43-4.23-5.88-4.1-.24.07-.42.25-.5.49-.13.41-.2.64,3.48,6.66,1.73,2.84,3.51,5.65,3.53,5.68.14.23.4.35.65.33.11,0,.23-.04.33-.11.33-.21.42-.66.21-.99-2.1-3.33-4.34-6.97-5.67-9.25,2.09,1.65,5.35,4.38,7.78,6.47.3.26.74.22.99-.08Z"/>
      <path class="cls-3" d="M33.88,226.07c-.15-.36-.57-.53-.93-.38-.03.01-3.38,1.46-6.77,3.05-7.04,3.3-7.4,3.94-7.6,4.29-.15.27-.15.6,0,.87.25.44.59,1.05,8.15,1.53,3.56.23,7.09.32,7.12.32.02,0,.05,0,.07,0,.36-.03.64-.33.65-.7,0-.4-.3-.72-.69-.73-6.75-.17-11.69-.61-13.49-1.02,1.91-1.22,7.73-3.97,13.11-6.3.36-.15.52-.58.37-.94Z"/>
      <path class="cls-3" d="M34.9,236.35c-.3-.25-.75-.2-.99.11-6.34,7.97-5.68,8.64-5.24,9.09.13.13.29.3.84.26.98-.07,3.19-.83,8.62-3.72.34-.18.48-.62.29-.97-.18-.35-.61-.49-.95-.3-2.71,1.44-5.9,2.96-7.37,3.43.76-1.4,2.92-4.38,4.91-6.89.24-.31.2-.76-.11-1.01Z"/>
      <path class="cls-3" d="M47.7,216.73c.13.37.54.56.9.43.37-.13.55-.55.42-.92-.01-.03-1.16-3.24-2.46-6.42-2.79-6.82-3.49-6.86-4.05-6.89-.25-.01-.48.08-.67.26-.32.32-.92.92-.99,9.6-.03,4.16.08,8.23.08,8.27.01.4.34.71.72.7.01,0,.02,0,.03,0,.37-.03.66-.35.65-.73-.18-6.63-.1-13.91.32-16.2,1.09,1.71,3.31,7.11,5.03,11.9Z"/>
      <path class="cls-3" d="M64.42,224.62c.13.08.28.11.42.1.22-.02.43-.14.55-.34.03-.04,2.52-4.26,4.79-8.58,4.48-8.53,4.13-9.82,3.39-10.4-.51-.4-1.36-1.08-11.01,4.17-4.58,2.49-9.03,5.17-9.07,5.2-.33.2-.44.64-.24.98.2.34.63.45.97.25,7.7-4.65,16.4-9.28,18.36-9.42.02,0,.03,0,.05,0-.05,1.49-3.15,8.16-8.43,17.08-.2.34-.09.78.24.98Z"/>
      <path class="cls-3" d="M59.54,236.07c-.39,0-.71.32-.71.71,0,.4.31.72.7.72.04,0,3.9.02,7.74-.03,3.31-.04,5.3-.1,6.52-.19,1.78-.13,1.88-.33,2.03-.62.37-.73-.35-1.23-2.14-2.37-1.06-.67-2.54-1.57-4.43-2.67-3.19-1.86-6.46-3.69-6.5-3.71-.34-.19-.77-.06-.96.28-.19.35-.06.78.28.97,4.43,2.47,9.26,5.28,11.42,6.7-2.66.16-8.59.23-13.97.2ZM74.61,236.69h0s0,0,0,0Z"/>
      <path class="cls-3" d="M50.41,243.6c-.23.32-.17.77.14,1,.02.02,2.53,1.93,5.08,3.71,3.6,2.51,5.11,3.3,5.88,3.24.28-.02.46-.15.62-.36.3-.4.64-.86-1.87-7.06-1.17-2.89-2.43-5.71-2.45-5.74-.16-.36-.58-.52-.93-.36s-.51.59-.35.95c1.93,4.29,3.87,9.11,4.3,10.92-1.64-.79-5.87-3.73-9.44-6.45-.31-.24-.75-.17-.99.14Z"/>
    </g>
  </g>
</svg>