<?xml version="1.0" encoding="UTF-8"?>
<svg id="Layer_1" data-name="Layer 1" xmlns="http://www.w3.org/2000/svg" viewBox="0 0 219.93 288">
  <defs>
    <style>
      .cls-1 {
        letter-spacing: 0em;
      }

      .cls-2 {
        fill: #fc6d3a;
      }

      .cls-3 {
        fill: #faa919;
      }

      .cls-4 {
        fill: #e6441c;
      }

      .cls-5 {
        fill: #010b0c;
      }

      .cls-6 {
        letter-spacing: -.01em;
      }

      .cls-7 {
        fill: #f9f9f9;
        font-family: RedHatDisplay-Bold, 'Red Hat Display';
        font-size: 22.37px;
        font-variation-settings: 'wght' 700;
        font-weight: 700;
      }

      .cls-8 {
        fill: #f54404;
      }
    </style>
  </defs>
  <path class="cls-5" d="M166.3,29.23s-17.77-2.44-35.72,2.85l18.59,1.19-28.62,12.65,17.49-.61-22.84,19.23,26.34-13.34-16.34,21.15,27.77-17.52-12.03,18.58s25.69-16.02,30.29-27.22c2.92-7.1-4.92-16.95-4.92-16.95Z"/>
  <g>
    <path class="cls-4" d="M0,256.21h204.65c8.43,0,15.28,6.85,15.28,15.28v16.51H15.86c-8.76,0-15.86-7.11-15.86-15.86v-15.93h0Z"/>
    <text class="cls-7" transform="translate(70.34 279.89)"><tspan class="cls-1" x="0" y="0">H</tspan><tspan x="16.13" y="0">a</tspan><tspan class="cls-6" x="28.28" y="0">k</tspan><tspan x="40.14" y="0">una</tspan></text>
  </g>
  <path class="cls-3" d="M169,30.04s-17.77-2.44-35.72,2.85l18.59,1.19-28.62,12.65,17.49-.61-22.84,19.23,26.34-13.34-16.34,21.15,27.77-17.52-12.03,18.58s25.69-16.02,30.29-27.22c2.92-7.1-4.92-16.95-4.92-16.95Z"/>
  <path class="cls-8" d="M181.9,26.68s-18.7-4.04-36.2,1.71l19.06,2.34-28.62,12.65,17.49-.61-22.84,19.23,26.34-13.34-16.34,21.15,27.77-17.52-12.03,18.58s25.69-16.02,30.29-27.22c2.92-7.1-4.92-16.95-4.92-16.95Z"/>
  <circle class="cls-2" cx="190.33" cy="30.29" r="15.21" transform="translate(103.32 202.26) rotate(-72.2)"/>
  <g>
    <path class="cls-5" d="M203.29,22.41c-3.79.3-7.41,1.56-10.8,3.26-3.55,1.78-6.84,4.01-10.16,6.18-1.99,1.3-3.98,2.6-5.96,3.9-.38.25-.58.78-.32,1.19.24.38.79.58,1.19.32,3.43-2.24,6.83-4.52,10.29-6.71,1.65-1.05,3.32-2.06,5.05-2.97.83-.44,1.67-.85,2.53-1.22.1-.04.19-.08.29-.13.06-.02.12-.05.17-.07-.19.08-.05.02,0,0,.22-.09.45-.18.68-.27.41-.16.83-.31,1.25-.46.96-.33,1.93-.61,2.92-.83.5-.11,1.01-.21,1.52-.29.05,0,.1-.02.16-.02.18-.03-.17.02.06,0,.13-.02.25-.03.38-.05.26-.03.52-.06.79-.08.45-.04.89-.39.86-.88-.02-.45-.39-.9-.88-.86h0Z"/>
    <path class="cls-5" d="M182.73,17.98c-.23-.17.06.06.11.1.08.07.16.15.24.23.17.17.33.34.48.53.07.08.14.17.2.25.13.16-.11-.16,0,0,.03.05.07.09.1.14.14.2.28.4.41.6.44.69.83,1.41,1.18,2.15.44.93.86,1.86,1.27,2.8.09.21.18.42.27.63.02.06.05.11.07.17.02.04.1.24.01.02.06.13.11.27.17.4.19.45.37.91.55,1.37,1.41,3.56,2.58,7.22,3.5,10.95.54,2.2,1.01,4.41,1.42,6.63.08.45.65.75,1.07.61.48-.16.7-.59.61-1.07-.72-3.93-1.62-7.83-2.82-11.65-1.2-3.85-2.7-7.61-4.4-11.27-.88-1.89-1.91-3.82-3.6-5.11-.17-.13-.48-.14-.67-.09-.2.06-.42.21-.52.4-.11.2-.16.45-.09.67.08.23.21.37.4.52h0Z"/>
    <path class="cls-5" d="M193.23,15.8c-.31.64-.67,1.24-1.08,1.82-.09.13-.19.26-.28.39-.02.03-.05.07-.07.1.14-.15.06-.08.03-.04-.06.08-.13.16-.19.24-.22.27-.44.52-.68.78-.48.52-1,1.02-1.53,1.49-.26.23-.53.45-.8.67-.13.1-.26.21-.39.31-.03.03-.06.05-.1.08-.16.13.11-.08,0,0-.07.06-.15.11-.22.17-1.15.86-2.34,1.66-3.57,2.4-.33.2-.66.39-1,.56-.16.08-.33.17-.5.24-.05.02-.29.14-.09.04-.1.05-.2.08-.3.12-.66.25-1.34.4-2.03.52-.15.02.02,0,.04,0-.06.01-.12.02-.18.02-.1.01-.21.02-.31.03-.2.02-.39.04-.59.05-.41.03-.81.04-1.22.04-.81,0-1.63-.03-2.44-.07-.46-.02-.89.43-.86.88.03.49.39.84.88.86,1.48.06,2.96.13,4.43-.04.77-.09,1.54-.22,2.28-.45.77-.24,1.51-.58,2.21-.97,1.3-.72,2.54-1.57,3.74-2.44,1.21-.88,2.38-1.82,3.42-2.89,1.16-1.18,2.18-2.53,2.91-4.02.2-.41.12-.96-.31-1.19-.39-.21-.98-.12-1.19.31h0Z"/>
    <path class="cls-5" d="M204.74,33.99c-3.08-.86-6.42-1.4-9.55-.44-2.94.9-5.18,3.11-6.85,5.62-1,1.51-1.8,3.13-2.59,4.75-.2.41-.12.96.31,1.19.39.21.98.12,1.19-.31.69-1.41,1.38-2.81,2.2-4.15.2-.33.41-.66.64-.97.1-.15.21-.3.32-.44.05-.07.11-.14.16-.21.03-.04.08-.13-.03.04.03-.04.06-.08.09-.12.42-.53.88-1.04,1.37-1.5.25-.24.51-.47.79-.69.05-.04.22-.21.06-.05.05-.05.13-.1.19-.14.14-.1.29-.21.44-.3.28-.18.57-.35.87-.51.14-.07.28-.14.43-.21.03-.01.07-.04.11-.05-.17.05-.08.03-.03.01.1-.04.19-.08.29-.11.33-.12.67-.23,1.01-.31.16-.04.32-.08.49-.11.08-.02.16-.03.25-.05.09-.02.22-.01.31-.05-.02,0-.2.03-.04,0,.04,0,.08-.01.12-.02.08-.01.17-.02.25-.03.19-.02.37-.03.56-.04.35-.02.71-.02,1.07-.02.43.01.86.04,1.29.09.05,0,.09.01.14.02.24.03-.19-.03.05,0,.12.02.23.03.35.05.21.03.42.07.62.1.9.16,1.79.38,2.67.63.44.12.97-.16,1.07-.62.1-.47-.15-.94-.62-1.07h0Z"/>
  </g>
</svg>