<?xml version="1.0" encoding="UTF-8"?>
<svg id="Layer_1" data-name="Layer 1" xmlns="http://www.w3.org/2000/svg" viewBox="0 0 219.93 288">
  <defs>
    <style>
      .cls-1 {
        fill: #010b0c;
      }

      .cls-2 {
        fill: #009aec;
      }

      .cls-3 {
        fill: #f4f4f4;
      }

      .cls-4 {
        fill: #f9f9f9;
        font-family: RedHatDisplay-Bold, 'Red Hat Display';
        font-size: 22.37px;
        font-variation-settings: 'wght' 700;
        font-weight: 700;
      }
    </style>
  </defs>
  <g>
    <path class="cls-2" d="M0,256.21h204.65c8.43,0,15.28,6.85,15.28,15.28v16.51H15.86c-8.76,0-15.86-7.11-15.86-15.86v-15.93h0Z"/>
    <text class="cls-4" transform="translate(87.08 279.89)"><tspan x="0" y="0">Inari</tspan></text>
  </g>
  <g>
    <path class="cls-1" d="M195.74,212.95s-8.31-31.55-8.98-33.01c-.66-1.46-6.55-3.34-6.55-3.34l13.49,76.01-28.78,9.4,5,2.66s30.91-6.06,31.47-7.32c.71-1.58-4.21-13.18-4.1-14.42.11-1.24,12.08-19.15-1.55-29.97Z"/>
    <path class="cls-2" d="M198.52,222.63c-1.45-7.18-5.82-7.81-5.82-7.81,0,0-7.9-35.2-10.71-37.39-2.8-2.2-9.81-.9-10.43,4.78-.62,5.68,2.65,19.92,2.65,19.92,0,0-10.43-5.71-11.45,6.18,0,0-9.2-2.19-7.27,9.7,0,0-7.27.12-3.29,12.24,3.98,12.12,12.61,19.86,12.61,19.86l.11,11.89,31.11-8.36-2.47-12.88s6.41-10.96,4.96-18.14Z"/>
    <g>
      <path class="cls-3" d="M175.9,179.76c.97-.62,2.08-.65,3.22-.09,1.17.57,2.05,1.68,2.41,3.03l7.82,29.47c.07.27.31.45.57.45.05,0,.1,0,.15-.02.32-.09.5-.42.42-.74l-7.82-29.47c-.45-1.69-1.56-3.08-3.04-3.8-1.5-.73-3.05-.68-4.36.15-1.49.95-2.54,2.88-2.55,4.68-.01,3.98,4.46,24.23,4.65,25.09.07.32.39.53.71.46.32-.07.52-.4.45-.72-.05-.21-4.64-20.98-4.62-24.83,0-1.42.82-2.92,1.99-3.67Z"/>
      <path class="cls-3" d="M168.49,211.91c2.29-1.67,7.13-1.61,14.01.16,5.29,1.36,9.93,3.28,9.98,3.3.3.13.65-.02.77-.33.12-.31-.02-.66-.32-.79-.05-.02-4.75-1.97-10.12-3.35-7.34-1.89-12.38-1.89-15,.02-1.66,1.21-2.48,2.6-2.42,4.13.03.89.13,3.61,6.95,7.83,1.97,1.22,6.21,3.73,8.07,4.83-1.54.93-4.42,3.06-5.05,6.28-.48,2.47.47,5.03,2.83,7.62.12.13.28.19.43.19.14,0,.29-.05.4-.16.24-.23.25-.61.03-.85-2.09-2.28-2.94-4.49-2.54-6.56.72-3.74,5.3-5.93,5.34-5.95.2-.09.33-.29.34-.52.01-.22-.1-.44-.29-.55-.06-.04-6.42-3.78-8.97-5.36-4.16-2.58-6.31-4.88-6.38-6.85-.04-1.1.61-2.15,1.93-3.11Z"/>
      <path class="cls-3" d="M179.21,215.41c-1.49,1.15-8.39-.33-12.39-1.54-.31-.09-.64.09-.74.41-.09.32.09.65.4.75.85.25,6.72,1.98,10.58,1.98,1.24,0,2.27-.18,2.86-.64.65-.5,1.02-1.15,1.1-1.93.19-1.93-1.56-3.97-1.63-4.06-.22-.25-.59-.27-.84-.05-.25.22-.27.6-.05.85.41.48,1.46,1.98,1.34,3.15-.04.44-.25.8-.63,1.09Z"/>
      <path class="cls-3" d="M197.05,221.03c-.96-5.34-11.26-6.8-11.7-6.86-.32-.05-.62.19-.67.52-.04.33.18.63.51.68.03,0,2.56.36,5.16,1.3,2.3.83,5.12,2.31,5.53,4.59,1.24,6.88-1.34,14.36-4.27,18.41-.1.13-.13.3-.11.46l2.24,12.71c.05.29.3.5.58.5.03,0,.07,0,.1,0,.32-.06.54-.37.48-.7l-2.19-12.46c3.01-4.29,5.61-12.02,4.33-19.13Z"/>
      <path class="cls-3" d="M169.75,217.61c-.28-.18-.64-.09-.82.19-.17.28-.09.65.19.83.4.25,9.73,6.2,12.67,7.58.08.04.16.06.25.06.22,0,.44-.13.54-.35.14-.3,0-.66-.29-.8-2.87-1.34-12.44-7.44-12.53-7.5Z"/>
      <path class="cls-3" d="M184.36,229.71c.32-.08.51-.41.43-.73-.08-.32-.4-.52-.72-.43-.22.06-5.38,1.44-6.58,4.87-1.21,3.48,2.44,7.45,2.59,7.62.12.12.27.19.43.19.15,0,.29-.05.41-.16.24-.23.25-.61.02-.85-.03-.04-3.31-3.6-2.34-6.39.99-2.83,5.71-4.09,5.76-4.11Z"/>
      <path class="cls-3" d="M171.05,228.56s-.09,2.79-1.63,4.12c-.7.6-1.58.82-2.69.67-3.7-.51-8.97-11.41-10.69-15.57-.13-.31-.47-.45-.78-.32-.3.13-.44.48-.32.79.02.04,1.62,3.89,3.79,7.78,2.99,5.35,5.63,8.21,7.83,8.52.28.04.55.06.81.06,1.09,0,2.04-.34,2.81-1.01,1.94-1.69,2.04-4.87,2.05-5,0-.33-.25-.61-.58-.62-.34,0-.6.25-.61.59Z"/>
      <path class="cls-3" d="M164.14,241.03c-3.17,1.13-7.45-4.02-8.83-6.1-.18-.28-.55-.35-.82-.16-.27.19-.34.56-.16.84.2.3,4.57,6.79,8.86,6.79.45,0,.9-.07,1.35-.23,1.17-.42,1.99-1.17,2.45-2.24,1.09-2.56-.41-6.03-.47-6.18-.13-.3-.48-.44-.78-.3-.3.13-.43.49-.3.79.01.03,1.35,3.14.46,5.21-.32.76-.9,1.27-1.75,1.58Z"/>
      <path class="cls-3" d="M174.45,229.29c-2.04-.32-4.68-4.14-7.43-10.74-2.16-5.19-3.67-10.35-3.69-10.4-.09-.32-.42-.5-.74-.41-.31.09-.49.43-.4.75.02.05,1.54,5.27,3.73,10.52,3.01,7.22,5.82,11.08,8.35,11.47.4.06.78.09,1.13.09,1.17,0,2.08-.34,2.72-1.02,1.3-1.37.9-3.57.89-3.66-.06-.33-.37-.54-.69-.48-.32.06-.53.38-.47.7,0,.02.3,1.69-.58,2.61-.55.58-1.5.77-2.82.57Z"/>
      <path class="cls-3" d="M161.59,210.68c.31.09.64-.09.73-.41.09-.32-.09-.65-.41-.74-1.31-.38-4.09-.41-5.22,2.25-1.3,3.07-.06,6.41,0,6.56.09.24.31.39.55.39.07,0,.14-.01.21-.04.31-.12.46-.47.34-.78-.01-.03-1.11-3.04,0-5.65.99-2.34,3.69-1.6,3.8-1.57Z"/>
      <path class="cls-3" d="M154.1,221.12c.26-.19.33-.56.14-.83-.19-.27-.55-.34-.82-.15-.14.1-3.38,2.49.09,10,.1.22.31.35.54.35.08,0,.17-.02.25-.06.3-.14.42-.5.28-.8-2.98-6.46-.53-8.46-.48-8.5Z"/>
      <path class="cls-3" d="M174.02,201.56c-.31.11-.47.45-.37.77l2.65,7.82c.08.25.31.41.56.41.06,0,.13-.01.19-.03.31-.11.47-.45.37-.77l-2.65-7.82c-.11-.31-.44-.48-.75-.37Z"/>
      <path class="cls-3" d="M168.24,201.53c-1.52.09-2.73,1.02-3.51,2.68-.55,1.19-.69,2.34-.7,2.39-.04.33.19.63.52.67.02,0,.05,0,.07,0,.3,0,.55-.22.59-.53,0-.04.49-3.85,3.1-4.01,2.71-.16,4.03,2.42,4.09,2.53.15.3.5.42.79.27.29-.15.41-.51.26-.81-.07-.14-1.72-3.41-5.22-3.2Z"/>
      <path class="cls-3" d="M180.98,184.44c-.03-.33-.33-.57-.65-.54l-3.83.41c-.16.02-.31.1-.41.23-.1.13-.14.3-.11.46l.9,5.52c.05.29.3.5.58.5.03,0,.06,0,.1,0,.32-.05.54-.36.49-.69l-.79-4.89,3.21-.34c.33-.03.56-.33.53-.66Z"/>
      <path class="cls-3" d="M180.02,186.21l-2.72.37c-.32.04-.55.35-.51.68.04.3.29.52.59.52.03,0,.05,0,.08,0l2.72-.37c.32-.04.55-.35.51-.68-.04-.33-.34-.56-.67-.52Z"/>
      <path class="cls-3" d="M181.65,197.87c.13.3.48.44.78.31.3-.13.44-.49.31-.79-2.49-5.83-3.4-5.83-3.74-5.83-.22,0-.42.1-.58.27-.68.76-.52,4.31-.27,7.15.03.31.29.55.59.55.02,0,.04,0,.05,0,.33-.03.57-.32.54-.65-.19-2.17-.27-4.69-.13-5.78.61.84,1.66,2.92,2.46,4.77Z"/>
      <path class="cls-3" d="M178.69,195.56c-.33.03-.57.32-.54.65.03.31.28.55.59.55.02,0,.03,0,.05,0l2.27-.2c.33-.03.57-.32.54-.65-.03-.33-.32-.58-.64-.55l-2.27.2Z"/>
      <path class="cls-3" d="M183.9,207.73c.26-.09.43-.36.39-.64l-.69-5.79c-.04-.33-.33-.56-.66-.53-.32.04-.56.34-.52.67l.37,3.07c-2.06-3.32-2.33-3.32-2.64-3.32-.19,0-.37.09-.49.24-.19.24-.43.55.97,6.68.06.28.31.47.58.47.04,0,.09,0,.13-.02.32-.08.52-.4.44-.72-.31-1.37-.62-2.85-.83-3.99.65,1.01,1.49,2.36,2.25,3.63.14.24.44.35.7.26Z"/>
      <path class="cls-3" d="M163.81,224.91c1.58-.74,4.36.66,5.3,1.26.28.18.64.09.82-.19.17-.28.09-.65-.19-.83-.16-.1-3.94-2.49-6.43-1.33-2.59,1.21-.43,7.47.04,8.71.09.24.31.39.55.39.07,0,.14-.01.21-.04.31-.12.46-.46.35-.78,0-.02-.63-1.72-.98-3.51-.4-2.03-.27-3.41.33-3.69Z"/>
      <path class="cls-3" d="M164.57,233.66c.27.19.64.13.83-.14.19-.27.13-.65-.14-.84-.55-.4-5.45-3.87-7.45-1.66-1.89,2.09,1.58,8.95,2.29,10.3.11.2.31.32.52.32.09,0,.19-.02.28-.07.29-.16.4-.52.24-.82-2.68-5.07-3.05-8.27-2.47-8.92,1.02-1.12,4.41.74,5.89,1.82Z"/>
      <path class="cls-3" d="M166.28,248.68c-3.61-2.26-5.78-6.42-5.8-6.46-.15-.29-.51-.41-.8-.25-.29.15-.4.52-.25.81.09.18,2.23,4.29,5.95,6.75l.07,10.94c0,.33.27.6.59.6h0c.33,0,.59-.27.59-.61l-.07-11.27c0-.21-.11-.4-.28-.51Z"/>
      <path class="cls-3" d="M192.64,252.52c-1.78.18-23.41,6.3-24.33,6.56-.32.09-.5.42-.41.74.07.27.31.44.57.44.05,0,.11,0,.16-.02,6.24-1.77,22.74-6.38,24.13-6.53.33-.03.56-.33.53-.66s-.32-.57-.65-.54Z"/>
      <path class="cls-3" d="M181.01,245.17c-.19-.58-.68-.51-.73-.5-.53.1-.57.58-.58,1.61-.42,1.05-1.5,2.93-2.77,4.76-.19.27-.13.65.14.84.27.19.64.13.83-.14.55-.79,1.24-1.83,1.84-2.87,0,.12,0,.24,0,.36.05,1.94.14,3.9.14,3.92.01.32.28.57.59.57,0,0,.02,0,.03,0,.33-.02.58-.3.56-.63-.11-2.5-.19-5.21-.18-6.65.17-.52.23-.96.13-1.27Z"/>
      <path class="cls-3" d="M183.18,251.96l-5.51,1.52c-.32.09-.5.42-.42.74.07.27.31.44.57.44.05,0,.1,0,.16-.02l5.51-1.52c.32-.09.5-.42.42-.74-.09-.32-.41-.51-.73-.42Z"/>
      <path class="cls-3" d="M173.39,246.44l-.57,8.61c-.02.33.22.62.55.64.01,0,.03,0,.04,0,.31,0,.57-.24.59-.56l.57-8.61c.02-.33-.22-.62-.55-.64-.33-.02-.61.23-.63.56Z"/>
      <path class="cls-3" d="M170.23,247.29l-.57,8.61c-.02.33.22.62.55.64.01,0,.03,0,.04,0,.31,0,.57-.24.59-.56l.57-8.61c.02-.33-.22-.62-.55-.64-.33-.02-.61.23-.63.56Z"/>
      <path class="cls-3" d="M175.32,247.78l-7.34,2.71c-.31.11-.47.46-.35.77.09.24.31.4.56.4.07,0,.14-.01.2-.04l7.34-2.71c.31-.11.47-.46.35-.77-.11-.31-.45-.47-.76-.36Z"/>
      <path class="cls-3" d="M175.32,251.63l-7.34,2.71c-.31.11-.47.46-.35.77.09.25.31.4.56.4.07,0,.14-.01.2-.04l7.34-2.71c.31-.11.47-.46.35-.77-.11-.31-.45-.47-.76-.36Z"/>
    </g>
  </g>
</svg>