<?xml version="1.0" encoding="UTF-8"?>
<svg id="Layer_1" data-name="Layer 1" xmlns="http://www.w3.org/2000/svg" viewBox="0 0 219.93 288">
  <defs>
    <style>
      .cls-1 {
        letter-spacing: 0em;
      }

      .cls-2 {
        fill: #faa919;
      }

      .cls-3 {
        fill: #fc2275;
      }

      .cls-4 {
        fill: #010b0c;
      }

      .cls-5 {
        letter-spacing: 0em;
      }

      .cls-6 {
        fill: #e10358;
      }

      .cls-7 {
        fill: #3038d5;
      }

      .cls-8 {
        letter-spacing: 0em;
      }

      .cls-9 {
        opacity: .38;
      }

      .cls-10 {
        letter-spacing: -.05em;
      }

      .cls-11 {
        fill: #f9f9f9;
        font-family: RedHatDisplay-Bold, 'Red Hat Display';
        font-size: 22.37px;
        font-variation-settings: 'wght' 700;
        font-weight: 700;
      }
    </style>
  </defs>
  <path class="cls-3" d="M0,256.16h204.65c8.43,0,15.28,6.85,15.28,15.28v16.51H15.86c-8.76,0-15.86-7.11-15.86-15.86v-15.93h0Z"/>
  <text class="cls-11" transform="translate(68.34 215.13)"><tspan class="cls-1" x="0" y="0">R</tspan><tspan class="cls-8" x="14.74" y="0">ac</tspan><tspan class="cls-10" x="38.66" y="0">k</tspan><tspan x="49.85" y="0">e</tspan><tspan class="cls-5" x="62.8" y="0">r</tspan><tspan x="71.52" y="0">s</tspan></text>
  <g>
    <path class="cls-4" d="M13.79,10.86c-.53,2.73.48,5.3,2.43,7.23,2.09,2.07,5.13,3,8.01,3.24,3.17.27,6.4-.47,9.54.21,2.59.56,4.93,2.12,6.6,4.15.94,1.15,1.69,2.44,2.18,3.85.48,1.38.54,2.81.89,4.22.08.33.64.33.73.01.72-2.32-.41-5.12-1.59-7.12-1.28-2.18-3.18-4-5.41-5.19-2.6-1.4-5.42-1.55-8.32-1.43-3.15.14-6.32.2-9.24-1.17-2.95-1.38-5.48-4.49-5.17-7.9.04-.42-.57-.52-.65-.1h0Z"/>
    <path class="cls-6" d="M30.9,34.3l-11.25,3.66s-.18-.32-.39-.81c-.5-1.17-1.14-3.28.22-4.19.63-.41,1.64-.92,2.78-1.39h0c2.39-.99,5.33-1.8,6.46-1.18,1.67.91,2.18,3.92,2.18,3.92Z"/>
    <g class="cls-9">
      <path class="cls-6" d="M22.26,31.56c-.69,1.11-1.23,2.55-.54,3.59.77,1.16-.9,1.66-2.47,1.99-.5-1.17-1.14-3.28.22-4.19.63-.41,1.64-.92,2.78-1.39Z"/>
    </g>
    <path class="cls-6" d="M66.18,21.7c.41.77.79,2.39.79,2.39l-1.48.41-10.44,2.91s-1.37-2.29-.53-4.16c.71-1.59,4.24-2.76,6.72-3.33.44-.1.85-.18,1.2-.25,2.34-.41,3.33,1.25,3.73,2.02Z"/>
    <g class="cls-9">
      <path class="cls-6" d="M66.18,21.7c.41.77.79,2.39.79,2.39l-1.48.41c-1.8.01-3.65-.35-2.6-1.59.94-1.12-.3-2.21-1.64-2.99.44-.1.85-.18,1.2-.25,2.34-.41,3.33,1.25,3.73,2.02Z"/>
    </g>
    <path class="cls-3" d="M73.44,27.89s0,0,0,0c-.13-.15-.26-.3-.39-.45-1.81-2.04-3.81-3.94-6.47-4.78-2.34-.74-4.87-.72-7.17.14-2.53.94-4.66,2.8-5.79,5.23-.02,0-.04.01-.06.02-.02.01-.05.02-.08.03-.03.01-.06.03-.09.03-.08.03-.16.06-.25.09-.87.3-1.75.59-2.62.89-1.91.64-3.84,1.26-5.76,1.89-3.22,1.05-6.42,2.14-9.6,3.28-.1-.05-.2-.09-.31-.13-.05-.02-.1-.04-.14-.06-.17-.06-.33-.13-.49-.19-.29-.1-.57-.21-.85-.3-1.54-.5-3.16-.8-4.78-.84-3.57-.09-7.28.93-9.58,3.82-2.52,3.16-2.96,7.28-3.16,11.18-.2,3.91-.35,7.85-.09,11.76,0,.04,0,.08,0,.13.25,3.83.31,8.7,1.65,12.74.18.55.38,1.08.61,1.58.4.89.88,1.72,1.45,2.46,1.63,2.09,4.22,3.45,6.91,2.91,3.08-.63,5.37-3.04,7.09-5.52.16-.22.31-.45.45-.68,1.41-2.17,2.46-4.57,3.18-7.05.44-1.51.76-3.05.96-4.6.12-.88.27-1.87.32-2.84,1.47-.41,2.99-.68,4.45-1.04,2.71-.67,5.4-1.44,8.08-2.21,2.68-.77,5.35-1.59,8.05-2.31,1.39-.37,2.78-.72,4.17-1.04.09-.02.19-.04.29-.06,2.81,4.04,6.2,7.77,10.58,9.81,1.42.67,2.94,1.15,4.58,1.41,3.5.55,7.85.03,9.13-3.84.57-1.73.34-3.51-.07-5.25-.23-.97-.5-1.94-.81-2.9-.3-.93-.64-1.86-1.01-2.77-.13-.32-.26-.64-.4-.96-1.17-2.79-2.57-5.54-4.04-8.18-.76-1.38-1.58-2.73-2.44-4.05-1.68-2.57-3.54-5.03-5.55-7.35Z"/>
    <path class="cls-2" d="M53.48,28.07c.87,2.34,1.67,4.7,1.22,5.64-.8,1.67-4.26,3.11-9.69,4.78-5.43,1.66-6.83,1.51-8.22-.01-.59-.65-1.3-2.47-1.93-4.36.1.04.21.09.31.13,3.18-1.14,6.38-2.23,9.6-3.28,1.92-.63,3.85-1.25,5.76-1.89.87-.3,1.75-.59,2.62-.89.08-.03.16-.06.25-.09.03,0,.06-.02.09-.03Z"/>
    <g>
      <path class="cls-2" d="M57.54,38.94c-1.08-.4-2.3-.71-3.45-.43-1.32.32-2.52,1.23-3.21,2.4-.53.9-.73,2-.59,3.03.31,2.22,2.22,3.99,4.45,4.15,1.6.12,3.3-.52,4.41-1.71,1.16-1.24,1.44-3.02.94-4.61-.39-1.26-1.29-2.38-2.56-2.84Z"/>
      <path class="cls-4" d="M56.9,40.17c-.75-.31-1.63-.51-2.44-.33-.56.13-1.37.44-1.74.97-.25.21-.47.46-.64.77-.38.64-.53,1.43-.42,2.17.23,1.58,1.56,2.84,3.15,2.98.85.07,1.63-.21,2.36-.63.41-.24.85-.51,1.12-.9.24-.34.4-.74.48-1.15.32-1.51-.39-3.26-1.86-3.86ZM58.25,43.39c-.1,1.49-1.38,2.76-2.91,2.92-1.46.15-2.72-.73-3.18-2.1-.69-2.02,1.35-4.21,3.39-4.02,1.27.12,2.35,1.15,2.64,2.38.07.28.09.56.07.83Z"/>
    </g>
    <g>
      <path class="cls-2" d="M41.11,44.05c-1.08-.4-2.3-.71-3.45-.43-1.32.32-2.52,1.23-3.21,2.4-.53.9-.73,2-.59,3.03.31,2.22,2.22,3.99,4.45,4.15,1.6.12,3.3-.52,4.41-1.71,1.16-1.24,1.44-3.02.94-4.61-.39-1.26-1.29-2.38-2.56-2.84Z"/>
      <path class="cls-4" d="M40.47,45.28c-.75-.31-1.63-.51-2.44-.33-.56.13-1.37.44-1.74.97-.25.21-.47.46-.65.77-.38.64-.53,1.43-.42,2.17.23,1.58,1.56,2.84,3.15,2.98.85.07,1.63-.21,2.36-.63.41-.24.85-.51,1.12-.9.24-.34.4-.74.48-1.15.32-1.51-.39-3.26-1.86-3.86ZM41.82,48.5c-.1,1.49-1.38,2.76-2.91,2.92-1.46.15-2.72-.73-3.18-2.1-.69-2.02,1.35-4.21,3.39-4.02,1.27.12,2.35,1.15,2.64,2.38.07.28.09.56.07.83Z"/>
    </g>
    <path class="cls-4" d="M64.94,48.94c.19.16.21.5.03.71-.06.08-.16.13-.28.16-9.27,1.94-18.11,5.78-27.55,6.95-.5,3.42-1.13,6.89-2.51,10.08-2.18,5.03-6.84,9.54-12.72,8.73-1.45-.21-2.78-.77-3.88-1.62-.23-.51-.43-1.04-.61-1.58,3.34,3.72,9.14,2.97,12.7-.28,4.41-4.03,5.33-10.12,6.37-15.69.03-.16.15-.28.31-.29,9.57-1.19,18.41-5.28,27.8-7.25.15-.03.27,0,.35.08Z"/>
    <path class="cls-4" d="M86.86,51.19c-.03,1.03-.21,2.06-.58,3.07-.97,2.65-3.2,4.58-6.05,4.84-2.76.25-5.48-.91-7.78-2.34-2.96-1.84-5.46-4.27-7.48-7.11-.07-.1-.14-.19-.21-.29-.13-.19,0-.39.18-.43h0c.09-.03.19,0,.26.1,2.15,2.94,4.96,5.48,8.12,7.29,2.17,1.23,4.83,2.16,7.36,1.72,2.86-.5,4.63-2.98,5.08-5.73.27-1.62.09-3.25-.3-4.83,0,0,0,0,0-.01l1.41,3.73Z"/>
    <path class="cls-4" d="M25.49,48.92c.75.13,1.63-.1,2.29-.45.29-.16.65-.33.74-.68.1-.37-.09-.81-.17-1.17-.1-.43-.19-.87-.29-1.3-.02-.1-.05-.21-.07-.31-.01-.04-.02-.09-.02-.13,0-.09-.05-.08-.16.04,0,.04.5.02.54.02.75-.03,1.81-.21,2.34-.79.28-.31-.04-.88-.45-.81-.36.07-.7.27-1.05.39-.37.12-.74.17-1.12.21-.34.03-.69.17-.83.5-.15.34-.03.69.05,1.03.1.41.19.83.29,1.24.05.21.1.41.14.62.02.08.04.17.05.25,0,.06.01.06.03-.02-.02.02-.04.03-.07.05-.17.07-.32.21-.49.28-.19.09-.38.16-.57.22-.39.11-.79.11-1.19.16-.38.04-.38.59-.01.66h0Z"/>
    <path class="cls-4" d="M21.45,46.04c.29.15.66.09.98.08.28-.01.56-.02.84-.03.28-.02.56-.05.84-.07.15-.01.3-.02.45-.04.26-.03.45-.09.64-.29.19-.2.13-.61-.09-.76-.34-.23-.74-.13-1.12-.08-.28.04-.56.07-.83.11-.28.04-.55.1-.83.15-.32.06-.68.08-.94.29-.22.19-.18.5.08.63h0Z"/>
    <path class="cls-4" d="M30.61,44.05c.05-.08.1-.16.11-.25.01-.08,0-.17,0-.25,0-.13-.02-.26-.03-.39-.02-.26-.05-.51-.09-.77-.04-.26-.08-.51-.13-.77-.02-.13-.05-.25-.07-.38-.01-.06-.03-.13-.04-.19-.03-.12-.08-.21-.14-.31-.2-.33-.77-.17-.8.2,0,.12,0,.22.02.33,0,.03.02.06.02.09.01.06.02.06,0,.02.03.13.06.25.09.38.05.25.11.49.15.74.05.25.09.49.13.74.02.13.04.26.06.38.01.08.02.17.05.25.04.09.1.15.17.22.12.13.39.08.49-.06h0Z"/>
    <path class="cls-4" d="M27.1,41.6c.07-.24.13-.48.16-.73.03-.26.03-.51.01-.77-.03-.48-.1-.97-.2-1.44-.07-.32-.1-.75-.44-.89-.2-.09-.47-.03-.6.16-.15.21-.12.42-.05.66.01.05.03.1.04.15,0,.03.02.07.03.1,0,0,.02.08,0,.04-.01-.05,0,.03,0,.04,0,.03.02.07.02.1.02.07.03.14.04.2.05.23.09.46.12.69.04.27.04.54.09.8.05.28.1.54.15.82.03.14.12.26.27.28.13.02.3-.06.34-.19h0Z"/>
    <path class="cls-4" d="M65.21,39.11c1.23.62,2.75.08,3.37-1.13.31-.6.31-1.32.12-1.95-.18-.62-.56-1.12-1.14-1.4-.51-.24-1.73-.63-1.88.23-.02.12.03.23.12.3.05.04-.07-.07-.02-.03.07.07.13.13.23.17.11.05.24.07.35.08.11.01.22.02.32.04.15.03.15.03.28.08.1.04.2.08.3.13.03.02.12.07.04.02.04.03.08.05.11.08.1.07-.05-.07.03.03.03.05.07.09.1.14.08.12.1.15.15.28.17.4.22.85.08,1.26-.15.43-.44.76-.85.97-.5.25-1.03.34-1.58.2-.29-.08-.38.36-.14.49h0Z"/>
    <path class="cls-4" d="M67.56,33.43c.59.3,1.29.53,1.96.49.69-.03,1.3-.42,1.69-.99.78-1.16.66-2.78-.49-3.65-.31-.23-.66-.39-1.03-.49-.36-.09-.86-.12-1.16.15-.23.21-.22.57.08.71.16.08.32.09.49.11.08,0,.15.02.23.04.03,0,.19.05.15.03.32.09.49.21.73.43.35.32.55.9.47,1.46-.08.55-.41,1.12-.97,1.31-.63.21-1.32.07-1.92-.17-.36-.15-.58.38-.24.55h0Z"/>
    <path class="cls-4" d="M61.86,30.58c1.31.56,2.76-.17,3.43-1.37.66-1.19.25-2.99-1.15-3.43-.38-.12-.78-.17-1.16-.04-.34.11-.65.39-.65.77,0,.07.07.15.13.18.15.06.28.06.44.06.1,0,.25,0,.33,0,.27,0,.46,0,.72.14.06.03.07.04.03.02.03.02.07.04.1.07.05.04.1.08.15.12.03.03.18.23.21.29.12.23.19.49.19.75,0,.6-.36,1.17-.82,1.53-.52.4-1.16.53-1.79.36-.32-.08-.44.42-.15.55h0Z"/>
    <path class="cls-4" d="M60.25,36.17c.56.06,1.14.07,1.66-.18.53-.25.88-.71,1.07-1.25.35-.99.12-2.11-.71-2.79-.39-.32-.91-.54-1.42-.51-.27.01-.63.17-.67.48-.04.26.2.4.41.47.12.04.24.05.36.07.05.01.1.02.15.03,0,0,.08.02.03,0-.05-.01.07.02.08.03.09.03.19.08.27.12-.07-.04.04.02.06.04.06.04.11.08.16.12.02.02.11.1.05.04.04.04.07.07.1.11.04.05.07.09.1.14.01.02.03.04.04.06-.03-.05,0,0,0,.02.1.23.14.34.16.57.05.43-.07.92-.36,1.27-.39.48-1.03.66-1.59.85-.14.05-.12.27.03.29h0Z"/>
    <g>
      <path class="cls-2" d="M64.4,26.71c-.43-.53-1.03-.8-1.71-.75-.86.07-1.7.68-2.04,1.47-.42.96-.04,2.19.86,2.72.46.27,1,.38,1.53.3.59-.09,1.1-.46,1.49-.9.72-.83.53-2.05-.13-2.85Z"/>
      <path class="cls-2" d="M61.77,32.39c-1.05-1.28-3.14-.68-3.75.73-.42.96-.04,2.19.86,2.72.46.27,1,.38,1.53.3.59-.09,1.1-.46,1.49-.9.72-.83.53-2.05-.13-2.85Z"/>
      <path class="cls-2" d="M68.6,29.03c-.85.07-1.7.69-2.04,1.47-.42.96-.04,2.19.86,2.72.46.27,1,.38,1.53.3.59-.09,1.1-.46,1.49-.9.72-.83.53-2.05-.13-2.85-.43-.53-1.03-.8-1.71-.75Z"/>
      <path class="cls-2" d="M65.79,34.52c-.85.06-1.68.61-2.04,1.44-.42.96-.04,2.19.86,2.72.46.27,1,.38,1.53.3.59-.09,1.1-.46,1.49-.9.72-.83.53-2.05-.13-2.85-.45-.55-1.08-.76-1.71-.72Z"/>
    </g>
    <g>
      <path class="cls-7" d="M23.31,38.65c.01.14,1.58,9.65,1.93,9.74.34.1,2.29-.22,2.59-.69.29-.47-1.78-9.55-1.9-9.8-.12-.24-2.66.18-2.61.75Z"/>
      <path class="cls-7" d="M20.75,42.45s8.62-1.81,8.77-1.63c.16.18.8,2.56.56,2.75-.23.19-8.38,2.17-8.68,1.89-.3-.28-1.18-2.71-.65-3.01Z"/>
    </g>
    <path class="cls-4" d="M69.34,32.68c.43-.12.79-.44.95-.86.09-.22.13-.45.13-.69,0-.28-.07-.58-.37-.66.03.01.06.03.09.04,0,0-.01,0-.02-.01-.1-.08-.28-.02-.29.12,0,0,0,.01,0,.02.01-.03.03-.06.04-.09-.07.12-.09.23-.07.37.01.09.03.17.03.26,0,.02,0,.05,0,.07,0,.02,0,.02,0-.02,0,.01,0,.02,0,.03,0,.04,0,.08-.01.13,0,.05-.02.09-.03.14-.02.07.02-.05,0,.02,0,.02-.01.04-.02.07-.03.08-.07.16-.1.24-.02.04-.04.08-.06.11.03-.05,0,.01-.01.02-.01.02-.03.04-.04.06-.11.15-.21.25-.37.35-.07.04-.08.14-.04.21.04.07.12.1.2.07h0Z"/>
    <path class="cls-4" d="M70.03,30.17s-.05-.08-.07-.11c-.01-.02-.03-.03-.04-.05-.01-.02-.03-.03-.04-.05-.03-.03-.07-.05-.11-.03-.04.02-.06.06-.06.1,0,.02,0,.04,0,.07,0,.02,0,.04,0,.07,0,.04.02.09.03.13,0,.03.01.05.03.08.02.02.04.04.06.05.04.01.08.02.12,0,.04-.01.07-.05.09-.08.01-.03.01-.05.01-.08,0-.03-.01-.05-.03-.08h0Z"/>
    <path class="cls-4" d="M66.37,38.52c.22.09.51-.05.67-.21.18-.17.31-.38.39-.61.08-.24.11-.48.07-.73-.02-.12-.04-.25-.09-.36-.03-.06-.05-.11-.09-.16-.03-.04-.06-.09-.1-.12-.05-.03-.11-.02-.14.04-.04.07-.04.19-.05.27-.01.1,0,.21,0,.29,0,.19-.02.39-.07.58-.01.05.02-.05,0,.03,0,.02-.02.04-.02.06-.02.04-.04.08-.06.13-.02.04-.03.05-.06.09-.03.04-.06.07-.09.11-.07.08-.09.09-.17.16-.08.06-.17.12-.23.19-.06.08-.03.2.06.24h0Z"/>
    <path class="cls-4" d="M60.43,35.35c.55.12,1.12-.24,1.33-.75.06-.15.09-.32.03-.46-.03-.08-.1-.15-.19-.14-.03,0-.06.02-.09.04-.03.02-.05.05-.06.08,0,0-.02.06,0,.02,0,.02-.02.04-.03.06-.01.03-.01.05-.02.08,0,.04.02-.05,0,.01,0,.01,0,.02-.01.04,0,.01-.03.11-.02.06.01-.03,0,.03,0,.03-.01.03-.02.06-.04.09-.01.03-.03.06-.04.09.02-.04-.01.02-.02.03-.04.05-.08.1-.12.15,0,0-.05.05-.01.01-.01.01-.03.03-.04.04-.02.02-.05.04-.08.06-.03.02-.06.04-.09.06-.03.02.04-.02-.01,0-.02,0-.03.02-.05.02-.12.05-.23.08-.36.07-.21-.01-.25.27-.05.32h0Z"/>
    <path class="cls-4" d="M63.44,29.86c.46-.16.85-.53,1.04-.98.1-.23.15-.49.14-.74,0-.24-.11-.52-.32-.65-.06-.04-.13.02-.15.08-.02.09-.01.2,0,.28,0,.13,0,.2,0,.33,0,.04,0,.06,0,.12,0,.05-.01.09-.02.14-.02.11-.03.18-.07.27-.13.37-.36.68-.73.84-.19.08-.08.37.12.3h0Z"/>
    <path class="cls-4" d="M56.53,44.8c.19-.1.38-.23.51-.41.13-.17.22-.37.28-.57.06-.22.09-.44.08-.67,0-.22-.06-.53-.32-.59-.05-.01-.1.02-.13.05-.12.16-.05.39-.04.57,0,.15-.01.34-.05.49-.02.05-.06.16-.09.24-.03.08-.09.18-.11.23-.09.15-.18.3-.31.43-.1.1.04.29.17.22h0Z"/>
    <path class="cls-4" d="M56.88,42.2c.15-.11-.02-.35-.18-.24-.15.11.02.35.18.24h0Z"/>
    <path class="cls-4" d="M39.57,50.41c.46-.1.86-.36,1.12-.75.13-.2.23-.41.28-.64.05-.22.1-.57-.15-.69-.04-.02-.1-.01-.14.02-.16.12-.15.39-.19.58-.03.15-.11.34-.19.47-.2.31-.47.57-.82.7-.17.07-.11.36.08.32h0Z"/>
    <path class="cls-4" d="M40.93,47.1c-.07-.08-.15-.17-.22-.25-.02-.02-.03-.03-.06-.04-.02,0-.05,0-.07,0-.04.02-.08.07-.07.12.02.11.03.21.05.32.01.07.05.14.13.17.05.02.11.02.16,0,.05-.02.09-.06.12-.11.03-.06.02-.15-.02-.21h0Z"/>
  </g>
</svg>