<?xml version="1.0" encoding="UTF-8"?>
<svg id="Layer_1" data-name="Layer 1" xmlns="http://www.w3.org/2000/svg" viewBox="0 0 219.93 288">
  <defs>
    <style>
      .cls-1 {
        letter-spacing: 0em;
      }

      .cls-2 {
        fill: #faa919;
      }

      .cls-3 {
        fill: #7e5ce6;
      }

      .cls-4 {
        fill: #006;
      }

      .cls-5 {
        fill: #fef1d8;
      }

      .cls-6 {
        fill: #f4f4f4;
      }

      .cls-7 {
        fill: #f9f9f9;
        font-family: RedHatDisplay-Bold, 'Red Hat Display';
        font-size: 22.37px;
        font-variation-settings: 'wght' 700;
        font-weight: 700;
      }
    </style>
  </defs>
  <g>
    <path class="cls-3" d="M0,256.21h204.65c8.43,0,15.28,6.85,15.28,15.28v16.51H15.86C7.11,288,0,280.89,0,272.14v-15.93H0Z"/>
    <text class="cls-7" transform="translate(80.12 279.89)"><tspan class="cls-1" x="0" y="0">R</tspan><tspan x="14.74" y="0">ubix</tspan></text>
  </g>
  <g>
    <path class="cls-3" d="M162.48,35.81l-12.35,33.43,42.82,13.51,9.27-33.39c-6.1-11.43,2.82-25.11,2.82-25.11l-9.32-6.68s-4.1,4.6-8.99,2.87c-4.89-1.73-4.19-6.26-4.19-6.26l-10.61-1.04s.77,8.34-.52,14.47c-1.29,6.13-8.94,8.21-8.94,8.21Z"/>
    <path class="cls-2" d="M162.35,35.34c-.25.08-.39.35-.32.6.06.21.25.34.46.34.05,0,.09,0,.14-.02,5.18-1.58,7.18-3.95,8.45-6.06,1.51-2.5,2.15-6.12,1.9-10.76-.18-3.43-.79-6.09-.82-6.2-.06-.26-.32-.42-.57-.36-.26.06-.42.32-.36.58.02.11,2.4,10.65-.97,16.24-1.18,1.95-3.04,4.15-7.92,5.64Z"/>
    <path class="cls-6" d="M161.76,37.21c-.26.01-.46.24-.45.51.01.26.22.46.48.46,0,0,.02,0,.02,0,.08,0,8.23-.51,11.35-8.45,3.06-7.81.87-16.22.78-16.57-.07-.26-.33-.41-.58-.34-.25.07-.4.34-.33.59.02.08,2.2,8.45-.74,15.96-2.88,7.35-10.44,7.84-10.51,7.85Z"/>
    <path class="cls-2" d="M205.43,24.52c.16-.22.11-.52-.1-.68-.21-.16-.51-.11-.67.1-.19.26-4.59,6.39-4.98,14.62-.11,2.42.83,8.57,2.12,11.01.09.16.25.25.42.25.08,0,.15-.02.23-.06.23-.13.32-.42.19-.66-1.18-2.24-2.11-8.18-2-10.5.37-7.92,4.75-14.03,4.79-14.09Z"/>
    <path class="cls-6" d="M203.73,23.34c.17-.2.14-.51-.06-.68-.2-.17-.5-.15-.67.06-.12.14-2.86,3.47-4.49,8.78-1.51,4.91-2.28,12.47,2.6,20.64.09.15.25.23.41.23.08,0,.17-.02.25-.07.22-.14.3-.44.16-.67-3.76-6.3-4.61-12.97-2.52-19.81,1.57-5.13,4.29-8.44,4.32-8.48Z"/>
    <path class="cls-2" d="M189.17,21.31c4.2,0,6.82-3.3,6.94-3.46.16-.21.13-.51-.08-.68-.21-.17-.51-.13-.67.08-.03.04-3.08,3.86-7.65,2.94-1.87-.37-3.22-1.49-4.02-3.31-.62-1.4-.66-2.72-.66-2.73,0-.27-.22-.47-.49-.47-.26,0-.47.23-.46.5,0,.06.22,5.92,5.45,6.97.57.11,1.11.16,1.63.16Z"/>
    <path class="cls-5" d="M186.44,22.43c1,.32,1.95.46,2.86.46,4.87,0,8.19-3.94,8.23-3.99.17-.2.14-.51-.06-.68-.2-.17-.5-.15-.67.06-.04.05-4.3,5.09-10.07,3.23-4.47-1.44-5.35-7.38-5.36-7.44-.04-.26-.28-.45-.54-.41-.26.04-.44.28-.41.55,0,.07.24,1.66,1.08,3.47,1.13,2.43,2.84,4.08,4.94,4.76Z"/>
    <g>
      <path class="cls-4" d="M181.14,58.92l-1.41-7.92-2.3-.72-2.12,6.82-6.1-1.9,6.3-20.23,10.33,3.22c1.4.43,2.58,1.11,3.5,2.02.94.92,1.58,2,1.89,3.21.32,1.22.27,2.49-.13,3.79-.41,1.33-1.16,2.42-2.21,3.24-.82.64-1.74,1.09-2.76,1.33l1.86,9.28-6.86-2.14ZM182.86,46.22c.25.08.49.12.71.12h0c.23,0,.44-.04.64-.13.35-.16.58-.43.71-.84.13-.41.09-.76-.11-1.09-.21-.36-.58-.61-1.1-.78l-3.8-1.18-.85,2.73,3.8,1.18Z"/>
      <path class="cls-6" d="M176.02,35.96l9.58,2.98c1.28.4,2.35,1.01,3.19,1.83.84.82,1.4,1.77,1.68,2.84.28,1.08.24,2.19-.12,3.35-.37,1.18-1.02,2.13-1.95,2.86-.93.73-2,1.17-3.2,1.32l1.76,8.77-5.14-1.6-1.41-7.92-3.51-1.09-2.12,6.82-4.6-1.43,5.83-18.73M183.58,47.12c.34,0,.67-.07.97-.21.56-.26.94-.7,1.13-1.32.19-.62.13-1.2-.18-1.73-.32-.53-.83-.9-1.54-1.13l-4.55-1.42-1.32,4.23,4.55,1.42c.33.1.65.15.94.15M174.99,33.99l-.47,1.5-5.83,18.73-.47,1.5,1.5.47,4.6,1.43,1.5.47.47-1.5,1.66-5.32,1.09.34,1.24,6.98.17.94.91.28,5.14,1.6,2.53.79-.52-2.6-1.46-7.28c.84-.29,1.62-.71,2.33-1.26,1.18-.92,2.02-2.15,2.48-3.63.45-1.44.49-2.86.14-4.22-.35-1.35-1.06-2.55-2.11-3.57-1.02-.99-2.3-1.73-3.82-2.2l-9.58-2.98-1.5-.47h0ZM180.05,44.52l.38-1.23,3.05.95c.5.15.62.36.66.43.06.1.11.21.03.46-.08.25-.17.31-.28.36-.09.04-.19.06-.31.06-.14,0-.3-.03-.48-.08l-3.05-.95h0Z"/>
    </g>
  </g>
  <polygon class="cls-2" points="152.27 57.11 149.56 62.22 144.97 62.08 148.66 64.64 148 70.04 150.63 65.27 155.31 65.57 151.25 62.76 152.27 57.11"/>
  <polygon class="cls-2" points="204.44 68.86 202.82 71.91 200.08 71.83 202.28 73.35 201.89 76.57 203.46 73.73 206.25 73.91 203.83 72.23 204.44 68.86"/>
  <polygon class="cls-2" points="201.95 55.91 198.79 62.98 192.65 63.2 197.81 66.29 197.42 73.55 200.5 66.95 206.76 66.93 201.09 63.54 201.95 55.91"/>
</svg>